<svg width="169" height="169" viewBox="0 0 169 169" fill="none" xmlns="http://www.w3.org/2000/svg">
<rect width="169" height="169" rx="30" fill="#D58F20"/>
<path d="M130.665 51.3729V68.2393H103.826V51.5196C103.826 50.3463 103.532 49.3196 102.946 48.4396C102.457 47.4619 101.479 46.6308 100.012 45.9464C98.6435 45.1641 96.7369 44.5775 94.2924 44.1864C91.9458 43.6975 88.9148 43.4531 85.1993 43.4531C81.4838 43.4531 78.4038 43.6486 75.9594 44.0397C73.515 44.4308 71.6084 44.9686 70.2395 45.653C68.8706 46.3375 67.8929 47.1686 67.3062 48.1463C66.8173 49.0263 66.5729 50.0041 66.5729 51.0796V63.6927C66.5729 65.8438 67.4529 67.6527 69.2129 69.1193C71.0706 70.586 73.515 71.9059 76.5461 73.0793C79.5771 74.1548 83.0482 75.1326 86.9592 76.0125C90.8703 76.8925 94.8302 77.8214 98.839 78.7992C102.946 79.7769 106.906 80.9502 110.719 82.3191C114.63 83.5902 118.101 85.2035 121.132 87.159C124.261 89.1146 126.705 91.5101 128.465 94.3456C130.323 97.1811 131.252 100.554 131.252 104.465V119.719C131.252 123.434 130.567 126.807 129.199 129.838C127.83 132.869 125.385 135.46 121.865 137.612C118.443 139.763 113.75 141.376 107.786 142.451C101.821 143.625 94.2924 144.211 85.1993 144.211C76.0083 144.211 68.4306 143.576 62.4663 142.305C56.5997 141.132 51.9065 139.42 48.3865 137.172C44.9643 134.825 42.5199 132.136 41.0533 129.105C39.6844 125.976 39 122.554 39 118.839V101.972H66.1329V118.692C66.1329 119.865 66.3773 120.941 66.8662 121.918C67.4529 122.798 68.4306 123.63 69.7995 124.412C71.2661 125.096 73.2217 125.683 75.6661 126.172C78.2083 126.563 81.386 126.758 85.1993 126.758C89.0125 126.758 92.1414 126.563 94.5858 126.172C97.0302 125.781 98.9857 125.243 100.452 124.558C101.919 123.874 102.897 123.092 103.386 122.212C103.972 121.234 104.266 120.207 104.266 119.132V106.519C104.266 104.27 103.337 102.461 101.479 101.092C99.6212 99.6255 97.1768 98.3544 94.1458 97.2789C91.2125 96.1056 87.7903 95.0789 83.8793 94.1989C79.9682 93.3189 76.0083 92.3901 71.9995 91.4123C67.9906 90.4345 64.0307 89.3101 60.1197 88.039C56.2086 86.6701 52.7376 85.008 49.7065 83.0524C46.6754 81.0969 44.231 78.7014 42.3733 75.8659C40.6133 73.0304 39.7333 69.6571 39.7333 65.746V50.4929C39.7333 46.7774 40.4666 43.4042 41.9333 40.3731C43.3999 37.342 45.8932 34.751 49.4132 32.5999C52.9331 30.4488 57.5775 28.8355 63.3463 27.76C69.2128 26.5867 76.4972 26 85.1993 26C93.9013 26 101.137 26.6355 106.906 27.9066C112.772 29.08 117.465 30.8399 120.985 33.1866C124.505 35.4354 126.999 38.1243 128.465 41.2531C129.932 44.2842 130.665 47.6574 130.665 51.3729Z" fill="#432A00"/>
</svg>
