<svg width="1239" height="119" viewBox="0 0 1239 119" fill="none" xmlns="http://www.w3.org/2000/svg">
<path d="M959 116.303H930.4L908.694 68.0505L936.12 66.5839L959 116.303ZM867.481 1.90491H915.587C924.192 1.90491 931.232 2.44268 936.707 3.51821C942.28 4.59375 946.68 6.20706 949.907 8.35813C953.133 10.5092 955.382 13.1492 956.653 16.278C957.924 19.3091 958.56 22.8779 958.56 26.9845V48.3975C958.56 52.4063 957.924 55.9752 956.653 59.104C955.382 62.1351 953.133 64.7261 949.907 66.8772C946.68 69.0283 942.28 70.6416 936.707 71.7171C931.232 72.7927 924.192 73.3304 915.587 73.3304H894.614V116.303H867.481V1.90491ZM931.427 47.2242V28.1578C931.427 26.8867 931.232 25.7623 930.84 24.7845C930.449 23.8068 929.667 22.9757 928.494 22.2912C927.321 21.509 925.707 20.9224 923.654 20.5313C921.601 20.0424 918.912 19.798 915.587 19.798H894.614V55.4374H915.587C918.912 55.4374 921.601 55.2418 923.654 54.8507C925.707 54.4596 927.321 53.9219 928.494 53.2374C929.667 52.553 930.449 51.7219 930.84 50.7441C931.232 49.6686 931.427 48.4953 931.427 47.2242Z" fill="black"/>
<path d="M860.603 116.303H779.791V1.90491H858.989V19.798H806.923V48.8375H854.883V65.8505H806.923V98.41H860.603V116.303Z" fill="black"/>
<path d="M731.735 54.7041H701.376L743.468 1.90491H775.001L731.735 54.7041ZM775.001 116.303H743.468L701.376 54.7041H731.735L775.001 116.303ZM678.056 116.303V1.90491H705.189V116.303H678.056Z" fill="black"/>
<path d="M621.381 118.211C611.994 118.211 604.221 117.576 598.061 116.305C591.901 114.936 587.012 113.029 583.395 110.585C579.875 108.141 577.381 105.207 575.915 101.785C574.546 98.2651 573.861 94.4029 573.861 90.1986V28.0129C573.861 23.8085 574.546 19.9952 575.915 16.5731C577.381 13.0531 579.875 10.071 583.395 7.62654C587.012 5.18214 591.901 3.32439 598.061 2.0533C604.221 0.684434 611.994 0 621.381 0C630.865 0 638.638 0.684434 644.7 2.0533C650.86 3.32439 655.7 5.18214 659.22 7.62654C662.838 10.071 665.331 13.0531 666.7 16.5731C668.167 19.9952 668.9 23.8085 668.9 28.0129V44.2926H641.767V29.1862C641.767 27.7196 641.522 26.3507 641.034 25.0796C640.545 23.7107 639.518 22.5374 637.954 21.5597C636.487 20.4841 634.434 19.653 631.794 19.0664C629.154 18.4797 625.683 18.1864 621.381 18.1864C617.176 18.1864 613.705 18.4797 610.967 19.0664C608.327 19.653 606.274 20.4841 604.808 21.5597C603.341 22.5374 602.314 23.7107 601.728 25.0796C601.239 26.3507 600.994 27.7196 600.994 29.1862V89.0253C600.994 90.4919 601.239 91.9097 601.728 93.2785C602.314 94.5496 603.341 95.7229 604.808 96.7985C606.274 97.7762 608.327 98.5584 610.967 99.1451C613.705 99.7318 617.176 100.025 621.381 100.025C625.683 100.025 629.154 99.7318 631.794 99.1451C634.434 98.5584 636.487 97.7762 637.954 96.7985C639.518 95.7229 640.545 94.5496 641.034 93.2785C641.522 91.9097 641.767 90.4919 641.767 89.0253V73.9188H668.9V90.1986C668.9 94.4029 668.167 98.2651 666.7 101.785C665.331 105.207 662.838 108.141 659.22 110.585C655.7 113.029 650.86 114.936 644.7 116.305C638.638 117.576 630.865 118.211 621.381 118.211Z" fill="black"/>
<path d="M518.361 0C527.845 0 535.618 0.684434 541.68 2.0533C547.84 3.32439 552.68 5.18214 556.2 7.62654C559.818 10.071 562.311 13.0531 563.68 16.5731C565.147 19.9952 565.88 23.8085 565.88 28.0129V90.1986C565.88 94.4029 565.147 98.2651 563.68 101.785C562.311 105.207 559.818 108.141 556.2 110.585C552.68 113.029 547.84 114.936 541.68 116.305C535.618 117.576 527.845 118.211 518.361 118.211C508.974 118.211 501.201 117.576 495.041 116.305C488.881 114.936 483.992 113.029 480.375 110.585C476.855 108.141 474.361 105.207 472.895 101.785C471.526 98.2651 470.841 94.4029 470.841 90.1986V28.0129C470.841 23.8085 471.526 19.9952 472.895 16.5731C474.361 13.0531 476.855 10.071 480.375 7.62654C483.992 5.18214 488.881 3.32439 495.041 2.0533C501.201 0.684434 508.974 0 518.361 0ZM538.747 89.0253V29.1862C538.747 27.7196 538.502 26.3507 538.014 25.0796C537.525 23.7107 536.498 22.5374 534.934 21.5597C533.467 20.4841 531.414 19.653 528.774 19.0664C526.134 18.4797 522.663 18.1864 518.361 18.1864C514.156 18.1864 510.685 18.4797 507.947 19.0664C505.307 19.653 503.254 20.4841 501.788 21.5597C500.321 22.5374 499.294 23.7107 498.708 25.0796C498.219 26.3507 497.974 27.7196 497.974 29.1862V89.0253C497.974 90.4919 498.219 91.9097 498.708 93.2785C499.294 94.5496 500.321 95.7229 501.788 96.7985C503.254 97.7762 505.307 98.5584 507.947 99.1451C510.685 99.7318 514.156 100.025 518.361 100.025C522.663 100.025 526.134 99.7318 528.774 99.1451C531.414 98.5584 533.467 97.7762 534.934 96.7985C536.498 95.7229 537.525 94.5496 538.014 93.2785C538.502 91.9097 538.747 90.4919 538.747 89.0253Z" fill="black"/>
<path d="M419.76 1.90491V98.41H468.306V116.303H392.627V1.90491H419.76Z" fill="black"/>
<path d="M383.561 116.303H354.961L333.255 68.0505L360.681 66.5839L383.561 116.303ZM292.042 1.90491H340.148C348.752 1.90491 355.792 2.44268 361.268 3.51821C366.841 4.59375 371.241 6.20706 374.467 8.35813C377.694 10.5092 379.943 13.1492 381.214 16.278C382.485 19.3091 383.121 22.8779 383.121 26.9845V48.3975C383.121 52.4063 382.485 55.9752 381.214 59.104C379.943 62.1351 377.694 64.7261 374.467 66.8772C371.241 69.0283 366.841 70.6416 361.268 71.7171C355.792 72.7927 348.752 73.3304 340.148 73.3304H319.175V116.303H292.042V1.90491ZM355.988 47.2242V28.1578C355.988 26.8867 355.792 25.7623 355.401 24.7845C355.01 23.8068 354.228 22.9757 353.054 22.2912C351.881 21.509 350.268 20.9224 348.214 20.5313C346.161 20.0424 343.472 19.798 340.148 19.798H319.175V55.4374H340.148C343.472 55.4374 346.161 55.2418 348.214 54.8507C350.268 54.4596 351.881 53.9219 353.054 53.2374C354.228 52.553 355.01 51.7219 355.401 50.7441C355.792 49.6686 355.988 48.4953 355.988 47.2242Z" fill="black"/>
<path d="M285.159 116.303H204.347V1.90491H283.546V19.798H231.48V48.8375H279.439V65.8505H231.48V98.41H285.159V116.303Z" fill="black"/>
<path d="M101.472 116.303V1.90491H128.605V46.0509H167.031V1.90491H194.017V116.303H167.031V63.9439H128.605V116.303H101.472Z" fill="black"/>
<path d="M91.6652 25.3729V42.2393H64.8256V25.5196C64.8256 24.3463 64.5323 23.3196 63.9456 22.4396C63.4568 21.4619 62.479 20.6308 61.0124 19.9464C59.6435 19.1641 57.7369 18.5775 55.2924 18.1864C52.9458 17.6975 49.9148 17.4531 46.1993 17.4531C42.4838 17.4531 39.4038 17.6486 36.9594 18.0397C34.515 18.4308 32.6084 18.9686 31.2395 19.653C29.8706 20.3375 28.8929 21.1686 28.3062 22.1463C27.8173 23.0263 27.5729 24.0041 27.5729 25.0796V37.6927C27.5729 39.8438 28.4529 41.6527 30.2129 43.1193C32.0706 44.586 34.515 45.9059 37.5461 47.0793C40.5771 48.1548 44.0482 49.1326 47.9592 50.0125C51.8703 50.8925 55.8302 51.8214 59.839 52.7992C63.9456 53.7769 67.9056 54.9502 71.7189 56.3191C75.6299 57.5902 79.101 59.2035 82.132 61.159C85.2609 63.1146 87.7053 65.5101 89.4652 68.3456C91.323 71.1811 92.2519 74.5544 92.2519 78.4654V93.7185C92.2519 97.434 91.5674 100.807 90.1986 103.838C88.8297 106.869 86.3853 109.46 82.8653 111.612C79.4432 113.763 74.7499 115.376 68.7856 116.451C62.8212 117.625 55.2924 118.211 46.1993 118.211C37.0083 118.211 29.4306 117.576 23.4663 116.305C17.5997 115.132 12.9065 113.42 9.38652 111.172C5.96435 108.825 3.51994 106.136 2.0533 103.105C0.684433 99.9762 0 96.554 0 92.8385V75.9721H27.1329V92.6919C27.1329 93.8652 27.3773 94.9407 27.8662 95.9185C28.4529 96.7985 29.4306 97.6296 30.7995 98.4118C32.2662 99.0962 34.2217 99.6829 36.6661 100.172C39.2083 100.563 42.386 100.758 46.1993 100.758C50.0125 100.758 53.1414 100.563 55.5858 100.172C58.0302 99.7806 59.9857 99.2429 61.4523 98.5584C62.919 97.874 63.8968 97.0918 64.3856 96.2118C64.9723 95.2341 65.2656 94.2074 65.2656 93.1319V80.5187C65.2656 78.2699 64.3367 76.461 62.479 75.0921C60.6212 73.6255 58.1768 72.3544 55.1458 71.2789C52.2125 70.1056 48.7903 69.0789 44.8793 68.1989C40.9682 67.3189 37.0083 66.3901 32.9995 65.4123C28.9906 64.4345 25.0307 63.3101 21.1197 62.039C17.2086 60.6702 13.7376 59.008 10.7065 57.0524C7.67543 55.0969 5.23103 52.7014 3.37328 49.8659C1.61331 47.0304 0.733321 43.6571 0.733321 39.746V24.4929C0.733321 20.7774 1.46664 17.4042 2.93329 14.3731C4.39993 11.342 6.89322 8.75098 10.4132 6.5999C13.9331 4.44882 18.5775 2.83551 24.3463 1.75998C30.2128 0.586659 37.4972 0 46.1993 0C54.9013 0 62.1368 0.635546 67.9056 1.90664C73.7721 3.07996 78.4654 4.83993 81.9853 7.18656C85.5053 9.43541 87.9986 12.1243 89.4652 15.2531C90.9319 18.2842 91.6652 21.6574 91.6652 25.3729Z" fill="black"/>
<rect x="990" y="1.60571" width="249" height="115" rx="57.5" fill="#D58F20"/>
<path d="M1053.22 91.6057H1034.05L1055.65 26.1512H1079.94L1101.55 91.6057H1082.37L1068.05 44.1767H1067.54L1053.22 91.6057ZM1049.64 65.7818H1085.69V79.0773H1049.64V65.7818ZM1110.55 91.6057V26.1512H1138.8C1143.66 26.1512 1147.91 27.11 1151.55 29.0276C1155.2 30.9452 1158.03 33.6405 1160.06 37.1135C1162.08 40.5865 1163.09 44.6455 1163.09 49.2904C1163.09 53.9779 1162.05 58.0368 1159.96 61.4672C1157.89 64.8976 1154.98 67.5397 1151.23 69.3934C1147.51 71.247 1143.15 72.1739 1138.16 72.1739H1121.29V58.3671H1134.58C1136.67 58.3671 1138.45 58.0049 1139.92 57.2804C1141.41 56.5347 1142.55 55.48 1143.34 54.1164C1144.15 52.7527 1144.56 51.1441 1144.56 49.2904C1144.56 47.4154 1144.15 45.8174 1143.34 44.4963C1142.55 43.154 1141.41 42.1313 1139.92 41.4282C1138.45 40.7037 1136.67 40.3415 1134.58 40.3415H1128.32V91.6057H1110.55ZM1190.08 26.1512V91.6057H1172.31V26.1512H1190.08Z" fill="#432A00"/>
</svg>
