<svg xmlns="http://www.w3.org/2000/svg" width="760" height="380" viewBox="0 0 760 380" role="img" aria-labelledby="title description"><title id="title">Regras de análise</title><desc id="description">Empresas atravessam regras e apenas os resultados aprovados seguem adiante.</desc><style>
  :host{display:block;color:#f0a121}
  svg{display:block;width:100%;height:auto;aspect-ratio:2/1;background:transparent;overflow:hidden}
  .sk-line,.sk-icon,.sk-flow,.sk-hair,.sk-ghost{fill:none;stroke:#f0a121;stroke-linecap:round;stroke-linejoin:round;vector-effect:non-scaling-stroke}
  .sk-line,.sk-icon{stroke-width:1.55}
  .sk-hair{stroke-width:.85;stroke-opacity:.3}
  .sk-ghost{stroke-width:1;stroke-opacity:.28;stroke-dasharray:5 7}
  .sk-flow{stroke-width:1.1;stroke-opacity:.42;stroke-dasharray:7 8;animation:flow 2.2s linear infinite}
  .sk-arrow{fill:none;stroke:#f0a121;stroke-width:1.15;stroke-opacity:.7;marker-end:url(#sk-arrow);vector-effect:non-scaling-stroke}
  .sk-plane,.sk-row-bg,.sk-icon-box{fill:rgba(240,161,33,.024);stroke:#f0a121;stroke-width:1.15;stroke-opacity:.68;vector-effect:non-scaling-stroke}
  .sk-row-bg{fill:rgba(240,161,33,.018);stroke-opacity:.24}
  .sk-icon-box{stroke-opacity:.34}
  .sk-hot{fill:#f0a121;filter:url(#soft-glow)}
  .sk-label{fill:#f0a121;font:500 16px 'DM Mono',ui-monospace,monospace;letter-spacing:.08em}
  .sk-small-label{fill:#f0a121;fill-opacity:.58;font:500 10px 'DM Mono',ui-monospace,monospace;letter-spacing:.13em}
  .sk-node-label{fill:#f0a121;fill-opacity:.74;font:500 11px 'DM Mono',ui-monospace,monospace;text-anchor:middle;letter-spacing:.04em}
  .sk-flow-label{fill:#f0a121;fill-opacity:.9;font:500 17px 'DM Mono',ui-monospace,monospace;text-anchor:middle;letter-spacing:.01em}
  .sk-flow-caption{fill:#f0a121;fill-opacity:.62;font:500 13px 'DM Mono',ui-monospace,monospace;text-anchor:middle;letter-spacing:.07em}
  .is-muted{opacity:.45}
  .sk-corner{fill:none;stroke:#f0a121;stroke-width:1;stroke-opacity:.35}
  .sk-node-ring,.sk-timeline-dot{fill:rgba(240,161,33,.018);stroke:#f0a121;stroke-width:1.4;vector-effect:non-scaling-stroke}
  .sk-timeline-dot{fill:#f0a121;stroke-width:0;filter:url(#soft-glow)}
  @keyframes flow{to{stroke-dashoffset:-30}}
  @media(prefers-reduced-motion:reduce){*{animation:none!important}}
</style><g transform="translate(-15.2 -25) scale(1.04 1)"><defs>
    <filter id="soft-glow"><feGaussianBlur stdDeviation="3" result="blur"/><feMerge><feMergeNode in="blur"/><feMergeNode in="SourceGraphic"/></feMerge></filter>
    <marker id="sk-arrow" markerWidth="8" markerHeight="8" refX="7" refY="4" orient="auto"><path d="M0 0 8 4 0 8z" fill="#f0a121" fill-opacity=".72" /></marker>
  </defs><g class="sk-entity-list">
    <rect class="sk-plane" x="42" y="70" width="286" height="256" rx="13" />

    <g class="sk-row" transform="translate(54 82)">
      <rect class="sk-row-bg" width="262" height="54" rx="8" />
      <rect class="sk-icon-box" x="10" y="9" width="36" height="36" rx="8" />
      <g class="sk-icon" transform="translate(18 17) scale(0.8333333333333334)"><path d="M10 12h4M10 8h4M14 21v-3a2 2 0 0 0-4 0v3" /><path d="M6 10H4a2 2 0 0 0-2 2v7a2 2 0 0 0 2 2h16a2 2 0 0 0 2-2V9a2 2 0 0 0-2-2h-2" /><path d="M6 21V5a2 2 0 0 1 2-2h8a2 2 0 0 1 2 2v16" /></g>
      <path class="sk-line" d="M62 20h110M62 35h72" />
      <g class="sk-icon sk-row-status " transform="translate(226 16) scale(0.9166666666666666)"><path d="M21.801 10A10 10 0 1 1 17 3.335" /><path d="m9 11 3 3L22 4" /></g>
    </g>
    <g class="sk-row" transform="translate(54 140)">
      <rect class="sk-row-bg" width="262" height="54" rx="8" />
      <rect class="sk-icon-box" x="10" y="9" width="36" height="36" rx="8" />
      <g class="sk-icon" transform="translate(18 17) scale(0.8333333333333334)"><path d="M10 12h4M10 8h4M14 21v-3a2 2 0 0 0-4 0v3" /><path d="M6 10H4a2 2 0 0 0-2 2v7a2 2 0 0 0 2 2h16a2 2 0 0 0 2-2V9a2 2 0 0 0-2-2h-2" /><path d="M6 21V5a2 2 0 0 1 2-2h8a2 2 0 0 1 2 2v16" /></g>
      <path class="sk-line" d="M62 20h96M62 35h64" />
      <g class="sk-icon sk-row-status " transform="translate(226 16) scale(0.9166666666666666)"><path d="m21.73 18-8-14a2 2 0 0 0-3.48 0l-8 14A2 2 0 0 0 4 21h16a2 2 0 0 0 1.73-3" /><path d="M12 9v4M12 17h.01" /></g>
    </g>
    <g class="sk-row" transform="translate(54 198)">
      <rect class="sk-row-bg" width="262" height="54" rx="8" />
      <rect class="sk-icon-box" x="10" y="9" width="36" height="36" rx="8" />
      <g class="sk-icon" transform="translate(18 17) scale(0.8333333333333334)"><path d="M10 12h4M10 8h4M14 21v-3a2 2 0 0 0-4 0v3" /><path d="M6 10H4a2 2 0 0 0-2 2v7a2 2 0 0 0 2 2h16a2 2 0 0 0 2-2V9a2 2 0 0 0-2-2h-2" /><path d="M6 21V5a2 2 0 0 1 2-2h8a2 2 0 0 1 2 2v16" /></g>
      <path class="sk-line" d="M62 20h122M62 35h78" />
      <g class="sk-icon sk-row-status " transform="translate(226 16) scale(0.9166666666666666)"><path d="M21.801 10A10 10 0 1 1 17 3.335" /><path d="m9 11 3 3L22 4" /></g>
    </g>
    <g class="sk-row" transform="translate(54 256)">
      <rect class="sk-row-bg" width="262" height="54" rx="8" />
      <rect class="sk-icon-box" x="10" y="9" width="36" height="36" rx="8" />
      <g class="sk-icon" transform="translate(18 17) scale(0.8333333333333334)"><path d="M10 12h4M10 8h4M14 21v-3a2 2 0 0 0-4 0v3" /><path d="M6 10H4a2 2 0 0 0-2 2v7a2 2 0 0 0 2 2h16a2 2 0 0 0 2-2V9a2 2 0 0 0-2-2h-2" /><path d="M6 21V5a2 2 0 0 1 2-2h8a2 2 0 0 1 2 2v16" /></g>
      <path class="sk-line" d="M62 20h104M62 35h68" />
      <g class="sk-icon sk-row-status " transform="translate(226 16) scale(0.9166666666666666)"><path d="M21.801 10A10 10 0 1 1 17 3.335" /><path d="m9 11 3 3L22 4" /></g>
    </g>
  </g><path class="sk-flow" d="M328 212h58M504 212h48" /><g class="sk-scanner" transform="translate(386 94)"><rect class="sk-plane" x="0" y="0" width="118" height="236" rx="13" /><path class="sk-line" d="M17 44V17h27M101 44V17h-27M17 192v27h27M101 192v27h-27" /><path class="sk-hair" d="M59 17v202M17 118h84" /><rect class="catalog-scan" x="18" y="46" width="82" height="14" /></g><g class="sk-result" transform="translate(552 159)"><rect class="sk-plane" x="0" y="0" width="132" height="112" rx="12" /><g class="sk-icon" transform="translate(42 18) scale(2)"><path d="M21.801 10A10 10 0 1 1 17 3.335" /><path d="m9 11 3 3L22 4" /></g><path class="sk-line" d="M24 84h84" /></g><style>.catalog-scan{fill:#f0a121;opacity:.05;animation:catalog-scan 5.8s ease-in-out infinite}.catalog-focus{animation:catalog-focus 5.8s ease-in-out infinite}.catalog-arrive{opacity:.25;animation:catalog-arrive 5.8s ease-in-out infinite}@keyframes catalog-scan{0%,24%,76%,100%{transform:translateY(0);opacity:.04}42%{opacity:.28}66%{transform:translateY(126px);opacity:.14}}@keyframes catalog-focus{0%,25%,100%{opacity:.28}42%,78%{opacity:1}}@keyframes catalog-arrive{0%,60%,100%{opacity:.25}76%,90%{opacity:1}}</style></g></svg>