<svg xmlns="http://www.w3.org/2000/svg" width="760" height="380" viewBox="0 0 760 380" role="img" aria-labelledby="title description"><title id="title">Parte</title><desc id="description">Parte e suas principais relações.</desc><style>
  :host{display:block;color:#f0a121}
  svg{display:block;width:100%;height:auto;aspect-ratio:2/1;background:transparent;overflow:hidden}
  .sk-line,.sk-icon,.sk-flow,.sk-hair,.sk-ghost{fill:none;stroke:#f0a121;stroke-linecap:round;stroke-linejoin:round;vector-effect:non-scaling-stroke}
  .sk-line,.sk-icon{stroke-width:1.55}
  .sk-hair{stroke-width:.85;stroke-opacity:.3}
  .sk-ghost{stroke-width:1;stroke-opacity:.28;stroke-dasharray:5 7}
  .sk-flow{stroke-width:1.1;stroke-opacity:.42;stroke-dasharray:7 8;animation:flow 2.2s linear infinite}
  .sk-arrow{fill:none;stroke:#f0a121;stroke-width:1.15;stroke-opacity:.7;marker-end:url(#sk-arrow);vector-effect:non-scaling-stroke}
  .sk-plane,.sk-row-bg,.sk-icon-box{fill:rgba(240,161,33,.024);stroke:#f0a121;stroke-width:1.15;stroke-opacity:.68;vector-effect:non-scaling-stroke}
  .sk-row-bg{fill:rgba(240,161,33,.018);stroke-opacity:.24}
  .sk-icon-box{stroke-opacity:.34}
  .sk-hot{fill:#f0a121;filter:url(#soft-glow)}
  .sk-label{fill:#f0a121;font:500 16px 'DM Mono',ui-monospace,monospace;letter-spacing:.08em}
  .sk-small-label{fill:#f0a121;fill-opacity:.58;font:500 10px 'DM Mono',ui-monospace,monospace;letter-spacing:.13em}
  .sk-node-label{fill:#f0a121;fill-opacity:.74;font:500 11px 'DM Mono',ui-monospace,monospace;text-anchor:middle;letter-spacing:.04em}
  .sk-flow-label{fill:#f0a121;fill-opacity:.9;font:500 17px 'DM Mono',ui-monospace,monospace;text-anchor:middle;letter-spacing:.01em}
  .sk-flow-caption{fill:#f0a121;fill-opacity:.62;font:500 13px 'DM Mono',ui-monospace,monospace;text-anchor:middle;letter-spacing:.07em}
  .is-muted{opacity:.45}
  .sk-corner{fill:none;stroke:#f0a121;stroke-width:1;stroke-opacity:.35}
  .sk-node-ring,.sk-timeline-dot{fill:rgba(240,161,33,.018);stroke:#f0a121;stroke-width:1.4;vector-effect:non-scaling-stroke}
  .sk-timeline-dot{fill:#f0a121;stroke-width:0;filter:url(#soft-glow)}
  @keyframes flow{to{stroke-dashoffset:-30}}
  @media(prefers-reduced-motion:reduce){*{animation:none!important}}
</style><g transform="translate(-15.2 -25) scale(1.04 1)"><defs>
    <filter id="soft-glow"><feGaussianBlur stdDeviation="3" result="blur"/><feMerge><feMergeNode in="blur"/><feMergeNode in="SourceGraphic"/></feMerge></filter>
    <marker id="sk-arrow" markerWidth="8" markerHeight="8" refX="7" refY="4" orient="auto"><path d="M0 0 8 4 0 8z" fill="#f0a121" fill-opacity=".72" /></marker>
  </defs><circle class="sk-node-ring" cx="380" cy="215" r="68" /><g class="sk-icon" transform="translate(350 174) scale(2.5)"><path d="M16 21v-2a4 4 0 0 0-4-4H6a4 4 0 0 0-4 4v2M16 3.128a4 4 0 0 1 0 7.744M22 21v-2a4 4 0 0 0-3-3.87" /><circle cx="9" cy="7" r="4" /></g><text class="sk-node-label" x="380" y="264">Parte</text><path class="sk-ghost" d="M380 215L190 82" /><g transform="translate(190 82)"><circle class="sk-node-ring" r="29" /><g class="sk-icon" transform="translate(-12 -12) scale(1)"><circle cx="12" cy="8" r="5" /><path d="M20 21a8 8 0 0 0-16 0" /></g></g><text class="sk-node-label" x="190" y="130">Pessoa</text><path class="sk-ghost" d="M380 215L568 82" /><g transform="translate(568 82)"><circle class="sk-node-ring" r="29" /><g class="sk-icon" transform="translate(-12 -12) scale(1)"><path d="M10 12h4M10 8h4M14 21v-3a2 2 0 0 0-4 0v3" /><path d="M6 10H4a2 2 0 0 0-2 2v7a2 2 0 0 0 2 2h16a2 2 0 0 0 2-2V9a2 2 0 0 0-2-2h-2" /><path d="M6 21V5a2 2 0 0 1 2-2h8a2 2 0 0 1 2 2v16" /></g></g><text class="sk-node-label" x="568" y="130">Empresa</text><path class="sk-ghost" d="M380 215L190 348" /><g transform="translate(190 348)"><circle class="sk-node-ring" r="29" /><g class="sk-icon" transform="translate(-12 -12) scale(1)"><path d="m14 13-8.381 8.38a1 1 0 0 1-3.001-3l8.384-8.381" /><path d="m16 16 6-6" /><path d="m21.5 10.5-8-8" /><path d="m8 8 6-6" /><path d="m8.5 7.5 8 8" /></g></g><text class="sk-node-label" x="190" y="396">Processo</text><path class="sk-ghost" d="M380 215L568 348" /><g transform="translate(568 348)"><circle class="sk-node-ring" r="29" /><g class="sk-icon" transform="translate(-12 -12) scale(1)"><path d="M12 3v18M3 7h1a17 17 0 0 0 8-2 17 17 0 0 0 8 2h1M7 21h10" /><path d="m19 8 3 8a5 5 0 0 1-6 0zV7M5 8l3 8a5 5 0 0 1-6 0V7" /></g></g><text class="sk-node-label" x="568" y="396">Jurídico</text><circle class="sk-hot" r="3"><animateMotion dur="4.8s" begin="0s" repeatCount="indefinite" path="M380 215L190 82" /></circle></g></svg>