<svg xmlns="http://www.w3.org/2000/svg" width="760" height="430" viewBox="0 0 760 430" role="img" aria-labelledby="title description"><title id="title">Propriedade rural</title><desc id="description">Propriedade rural e suas principais relações.</desc><style>
  :host{display:block;color:#f0a121}
  svg{display:block;width:100%;height:auto;aspect-ratio:16/9;background:#060605;overflow:hidden}
  .sk-grid{fill:none;stroke:#f0a121;stroke-width:1;stroke-opacity:.07}
  .sk-line,.sk-icon,.sk-flow,.sk-hair,.sk-ghost{fill:none;stroke:#f0a121;stroke-linecap:round;stroke-linejoin:round;vector-effect:non-scaling-stroke}
  .sk-line,.sk-icon{stroke-width:1.55}
  .sk-hair{stroke-width:.85;stroke-opacity:.3}
  .sk-ghost{stroke-width:1;stroke-opacity:.28;stroke-dasharray:5 7}
  .sk-flow{stroke-width:1.1;stroke-opacity:.42;stroke-dasharray:7 8;animation:flow 2.2s linear infinite}
  .sk-plane,.sk-row-bg,.sk-icon-box{fill:rgba(240,161,33,.024);stroke:#f0a121;stroke-width:1.15;stroke-opacity:.68;vector-effect:non-scaling-stroke}
  .sk-row-bg{fill:#080806;stroke-opacity:.24}
  .sk-icon-box{stroke-opacity:.34}
  .sk-hot{fill:#f0a121;filter:url(#soft-glow)}
  .sk-label{fill:#f0a121;font:500 16px 'DM Mono',ui-monospace,monospace;letter-spacing:.08em}
  .sk-small-label{fill:#f0a121;fill-opacity:.58;font:500 10px 'DM Mono',ui-monospace,monospace;letter-spacing:.13em}
  .is-muted{opacity:.45}
  .sk-corner{fill:none;stroke:#f0a121;stroke-width:1;stroke-opacity:.35}
  .sk-node-ring,.sk-timeline-dot{fill:#080806;stroke:#f0a121;stroke-width:1.4;vector-effect:non-scaling-stroke}
  .sk-timeline-dot{fill:#f0a121;stroke-width:0;filter:url(#soft-glow)}
  @keyframes flow{to{stroke-dashoffset:-30}}
  @media(prefers-reduced-motion:reduce){*{animation:none!important}}
</style><defs>
    <pattern id="entity-tractor-user-company-trees-location" width="24" height="24" patternUnits="userSpaceOnUse"><path d="M24 0H0V24" class="sk-grid" /></pattern>
    <filter id="soft-glow"><feGaussianBlur stdDeviation="3" result="blur"/><feMerge><feMergeNode in="blur"/><feMergeNode in="SourceGraphic"/></feMerge></filter>
  </defs><rect width="760" height="430" fill="url(#entity-tractor-user-company-trees-location)" /><circle class="sk-node-ring" cx="380" cy="215" r="68" /><g class="sk-icon" transform="translate(350 185) scale(2.5)"><path d="m10 11 11 .9a1 1 0 0 1 .8 1.1l-.665 4.158A1 1 0 0 1 20 18h-2M16 18h-5M18 5a1 1 0 0 0-1 1v5.573M3 4h8.129a1 1 0 0 1 .99.863L13 11.246M4 11V4M8 10.1V4" /><circle cx="18" cy="18" r="2" /><circle cx="7" cy="15" r="5" /></g><path class="sk-ghost" d="M380 215L190 82" /><g transform="translate(190 82)"><circle class="sk-node-ring" r="29" /><g class="sk-icon" transform="translate(-12 -12) scale(1)"><circle cx="12" cy="8" r="5" /><path d="M20 21a8 8 0 0 0-16 0" /></g></g><path class="sk-ghost" d="M380 215L568 82" /><g transform="translate(568 82)"><circle class="sk-node-ring" r="29" /><g class="sk-icon" transform="translate(-12 -12) scale(1)"><path d="M10 12h4M10 8h4M14 21v-3a2 2 0 0 0-4 0v3" /><path d="M6 10H4a2 2 0 0 0-2 2v7a2 2 0 0 0 2 2h16a2 2 0 0 0 2-2V9a2 2 0 0 0-2-2h-2" /><path d="M6 21V5a2 2 0 0 1 2-2h8a2 2 0 0 1 2 2v16" /></g></g><path class="sk-ghost" d="M380 215L190 348" /><g transform="translate(190 348)"><circle class="sk-node-ring" r="29" /><g class="sk-icon" transform="translate(-12 -12) scale(1)"><path d="M10 10v.2A3 3 0 0 1 8.9 16H5a3 3 0 0 1-1-5.8V10a3 3 0 0 1 6 0ZM7 16v6M13 19v3M12 19h8.3a1 1 0 0 0 .7-1.7L18 14h.3a1 1 0 0 0 .7-1.7L16 9h.2a1 1 0 0 0 .8-1.7L13 3l-1.4 1.5" /></g></g><path class="sk-ghost" d="M380 215L568 348" /><g transform="translate(568 348)"><circle class="sk-node-ring" r="29" /><g class="sk-icon" transform="translate(-12 -12) scale(1)"><path d="M20 10c0 4.993-5.539 10.193-7.399 11.799a1 1 0 0 1-1.202 0C9.539 20.193 4 14.993 4 10a8 8 0 0 1 16 0" /><circle cx="12" cy="10" r="3" /></g></g><circle class="sk-hot" r="3"><animateMotion dur="4.8s" begin="0s" repeatCount="indefinite" path="M380 215L190 82" /></circle></svg>