<svg xmlns="http://www.w3.org/2000/svg" width="760" height="430" viewBox="0 0 760 430" role="img" aria-labelledby="title description"><title id="title">Perfil jurídico</title><desc id="description">Pessoas e empresas entram em processos cuja evolução aparece numa timeline.</desc><style>
  :host{display:block;color:#f0a121}
  svg{display:block;width:100%;height:auto;aspect-ratio:16/9;background:transparent;overflow:hidden}
  .sk-grid{fill:none;stroke:#f0a121;stroke-width:1;stroke-opacity:.07}
  .sk-line,.sk-icon,.sk-flow,.sk-hair,.sk-ghost{fill:none;stroke:#f0a121;stroke-linecap:round;stroke-linejoin:round;vector-effect:non-scaling-stroke}
  .sk-line,.sk-icon{stroke-width:1.55}
  .sk-hair{stroke-width:.85;stroke-opacity:.3}
  .sk-ghost{stroke-width:1;stroke-opacity:.28;stroke-dasharray:5 7}
  .sk-flow{stroke-width:1.1;stroke-opacity:.42;stroke-dasharray:7 8;animation:flow 2.2s linear infinite}
  .sk-plane,.sk-row-bg,.sk-icon-box{fill:rgba(240,161,33,.024);stroke:#f0a121;stroke-width:1.15;stroke-opacity:.68;vector-effect:non-scaling-stroke}
  .sk-row-bg{fill:rgba(240,161,33,.018);stroke-opacity:.24}
  .sk-icon-box{stroke-opacity:.34}
  .sk-hot{fill:#f0a121;filter:url(#soft-glow)}
  .sk-label{fill:#f0a121;font:500 16px 'DM Mono',ui-monospace,monospace;letter-spacing:.08em}
  .sk-small-label{fill:#f0a121;fill-opacity:.58;font:500 10px 'DM Mono',ui-monospace,monospace;letter-spacing:.13em}
  .is-muted{opacity:.45}
  .sk-corner{fill:none;stroke:#f0a121;stroke-width:1;stroke-opacity:.35}
  .sk-node-ring,.sk-timeline-dot{fill:rgba(240,161,33,.018);stroke:#f0a121;stroke-width:1.4;vector-effect:non-scaling-stroke}
  .sk-timeline-dot{fill:#f0a121;stroke-width:0;filter:url(#soft-glow)}
  @keyframes flow{to{stroke-dashoffset:-30}}
  @media(prefers-reduced-motion:reduce){*{animation:none!important}}
</style><defs>
    <pattern id="legal-grid" width="24" height="24" patternUnits="userSpaceOnUse"><path d="M24 0H0V24" class="sk-grid" /></pattern>
    <filter id="soft-glow"><feGaussianBlur stdDeviation="3" result="blur"/><feMerge><feMergeNode in="blur"/><feMergeNode in="SourceGraphic"/></feMerge></filter>
  </defs><rect width="760" height="430" fill="url(#legal-grid)" /><g class="sk-entity-list">
    <rect class="sk-plane" x="42" y="70" width="294" height="256" rx="13" />

    <g class="sk-row" transform="translate(54 82)">
      <rect class="sk-row-bg" width="270" height="54" rx="8" />
      <rect class="sk-icon-box" x="10" y="9" width="36" height="36" rx="8" />
      <g class="sk-icon" transform="translate(18 17) scale(0.8333333333333334)"><path d="M10 12h4M10 8h4M14 21v-3a2 2 0 0 0-4 0v3" /><path d="M6 10H4a2 2 0 0 0-2 2v7a2 2 0 0 0 2 2h16a2 2 0 0 0 2-2V9a2 2 0 0 0-2-2h-2" /><path d="M6 21V5a2 2 0 0 1 2-2h8a2 2 0 0 1 2 2v16" /></g>
      <path class="sk-line" d="M62 20h114M62 35h72" />

    </g>
    <g class="sk-row" transform="translate(54 140)">
      <rect class="sk-row-bg" width="270" height="54" rx="8" />
      <rect class="sk-icon-box" x="10" y="9" width="36" height="36" rx="8" />
      <g class="sk-icon" transform="translate(18 17) scale(0.8333333333333334)"><circle cx="12" cy="8" r="5" /><path d="M20 21a8 8 0 0 0-16 0" /></g>
      <path class="sk-line" d="M62 20h98M62 35h64" />

    </g>
    <g class="sk-row" transform="translate(54 198)">
      <rect class="sk-row-bg" width="270" height="54" rx="8" />
      <rect class="sk-icon-box" x="10" y="9" width="36" height="36" rx="8" />
      <g class="sk-icon" transform="translate(18 17) scale(0.8333333333333334)"><path d="M10 12h4M10 8h4M14 21v-3a2 2 0 0 0-4 0v3" /><path d="M6 10H4a2 2 0 0 0-2 2v7a2 2 0 0 0 2 2h16a2 2 0 0 0 2-2V9a2 2 0 0 0-2-2h-2" /><path d="M6 21V5a2 2 0 0 1 2-2h8a2 2 0 0 1 2 2v16" /></g>
      <path class="sk-line" d="M62 20h126M62 35h82" />

    </g>
    <g class="sk-row" transform="translate(54 256)">
      <rect class="sk-row-bg" width="270" height="54" rx="8" />
      <rect class="sk-icon-box" x="10" y="9" width="36" height="36" rx="8" />
      <g class="sk-icon" transform="translate(18 17) scale(0.8333333333333334)"><circle cx="12" cy="8" r="5" /><path d="M20 21a8 8 0 0 0-16 0" /></g>
      <path class="sk-line" d="M62 20h105M62 35h70" />

    </g>
  </g><path class="sk-flow" d="M336 212h64M516 212h44" /><g class="sk-scanner" transform="translate(400 94)"><rect class="sk-plane" x="0" y="0" width="116" height="236" rx="13" /><path class="sk-line" d="M17 44V17h27M99 44V17h-27M17 192v27h27M99 192v27h-27" /><path class="sk-hair" d="M58 17v202M17 118h82" /><rect class="catalog-scan" x="18" y="46" width="80" height="14" /></g><g transform="translate(560 54)"><rect class="sk-plane" x="0" y="0" width="158" height="320" rx="12" /><path class="sk-hair" d="M36 42v238" /><g transform="translate(0 54)"><circle class="sk-timeline-dot" cx="36" r="6" /><g class="sk-icon" transform="translate(58 -13) scale(1.0833333333333333)"><path d="m14 13-8.381 8.38a1 1 0 0 1-3.001-3l8.384-8.381" /><path d="m16 16 6-6" /><path d="m21.5 10.5-8-8" /><path d="m8 8 6-6" /><path d="m8.5 7.5 8 8" /></g><path class="sk-line" d="M98-4h38M98 12h24" /></g><g transform="translate(0 124)"><circle class="sk-timeline-dot" cx="36" r="6" /><g class="sk-icon" transform="translate(58 -13) scale(1.0833333333333333)"><path d="m14 13-8.381 8.38a1 1 0 0 1-3.001-3l8.384-8.381" /><path d="m16 16 6-6" /><path d="m21.5 10.5-8-8" /><path d="m8 8 6-6" /><path d="m8.5 7.5 8 8" /></g><path class="sk-line" d="M98-4h38M98 12h24" /></g><g transform="translate(0 194)"><circle class="sk-timeline-dot" cx="36" r="6" /><g class="sk-icon" transform="translate(58 -13) scale(1.0833333333333333)"><path d="m21.73 18-8-14a2 2 0 0 0-3.48 0l-8 14A2 2 0 0 0 4 21h16a2 2 0 0 0 1.73-3" /><path d="M12 9v4M12 17h.01" /></g><path class="sk-line" d="M98-4h38M98 12h24" /></g><g transform="translate(0 264)"><circle class="sk-timeline-dot" cx="36" r="6" /><g class="sk-icon" transform="translate(58 -13) scale(1.0833333333333333)"><path d="m14 13-8.381 8.38a1 1 0 0 1-3.001-3l8.384-8.381" /><path d="m16 16 6-6" /><path d="m21.5 10.5-8-8" /><path d="m8 8 6-6" /><path d="m8.5 7.5 8 8" /></g><path class="sk-line" d="M98-4h38M98 12h24" /></g></g><style>.catalog-scan{fill:#f0a121;opacity:.05;animation:catalog-scan 5.8s ease-in-out infinite}.catalog-focus{animation:catalog-focus 5.8s ease-in-out infinite}.catalog-arrive{opacity:.25;animation:catalog-arrive 5.8s ease-in-out infinite}@keyframes catalog-scan{0%,24%,76%,100%{transform:translateY(0);opacity:.04}42%{opacity:.28}66%{transform:translateY(126px);opacity:.14}}@keyframes catalog-focus{0%,25%,100%{opacity:.28}42%,78%{opacity:1}}@keyframes catalog-arrive{0%,60%,100%{opacity:.25}76%,90%{opacity:1}}</style></svg>